REM DIRINDEX 1\5,1\2\6,1\2\7,1\3\8,1\3\9,1\4\10,1\4\11,1\4\12
REM DIRNAME folder01,folder02,folder03,folder04,folder05,folder06,folder07,folder08,folder09,folder10,folder11,folder12
TITLE ""
FILE "EJE_DB3000_5th_1A_22.mp3" MP3
  TRACK 01 AUDIO
    TITLE "0:"
    INDEX 01 00:00:00
  TRACK 02 AUDIO
    TITLE "10:cjc026_07473"
    INDEX 01 00:00:05
  TRACK 03 AUDIO
    TITLE "0:"
    INDEX 01 00:00:66
  TRACK 04 AUDIO
    TITLE "11:cjc026_07474"
    INDEX 01 00:01:19
  TRACK 05 AUDIO
    TITLE "0:"
    INDEX 01 00:02:20
  TRACK 06 AUDIO
    TITLE "12:cjc026_07475"
    INDEX 01 00:02:45
  TRACK 07 AUDIO
    TITLE "0:"
    INDEX 01 00:03:31
  TRACK 08 AUDIO
    TITLE "10:cjc026_07476"
    INDEX 01 00:03:59
  TRACK 09 AUDIO
    TITLE "0:"
    INDEX 01 00:04:56
  TRACK 10 AUDIO
    TITLE "11:cjc026_07477"
    INDEX 01 00:05:07
  TRACK 11 AUDIO
    TITLE "0:"
    INDEX 01 00:06:08
  TRACK 12 AUDIO
    TITLE "12:cjc026_07478"
    INDEX 01 00:06:33
  TRACK 13 AUDIO
    TITLE "0:"
    INDEX 01 00:07:31
  TRACK 14 AUDIO
    TITLE "10:cjc026_07479"
    INDEX 01 00:07:56
  TRACK 15 AUDIO
    TITLE "0:"
    INDEX 01 00:08:60
  TRACK 16 AUDIO
    TITLE "11:cjc026_07480"
    INDEX 01 00:09:10
  TRACK 17 AUDIO
    TITLE "0:"
    INDEX 01 00:10:10
  TRACK 18 AUDIO
    TITLE "12:cjc026_07481"
    INDEX 01 00:10:37
  TRACK 19 AUDIO
    TITLE "0:"
    INDEX 01 00:11:40
  TRACK 20 AUDIO
    TITLE "10:cjc026_07482"
    INDEX 01 00:11:66
  TRACK 21 AUDIO
    TITLE "0:"
    INDEX 01 00:12:58
  TRACK 22 AUDIO
    TITLE "11:cjc026_07483"
    INDEX 01 00:13:08
  TRACK 23 AUDIO
    TITLE "0:"
    INDEX 01 00:14:04
  TRACK 24 AUDIO
    TITLE "12:cjc026_07484"
    INDEX 01 00:14:29
  TRACK 25 AUDIO
    TITLE "0:"
    INDEX 01 00:15:21
  TRACK 26 AUDIO
    TITLE "10:cjc026_07485"
    INDEX 01 00:15:48
  TRACK 27 AUDIO
    TITLE "0:"
    INDEX 01 00:16:38
  TRACK 28 AUDIO
    TITLE "11:cjc026_07486"
    INDEX 01 00:16:65
  TRACK 29 AUDIO
    TITLE "0:"
    INDEX 01 00:17:65
  TRACK 30 AUDIO
    TITLE "12:cjc026_07487"
    INDEX 01 00:18:15
  TRACK 31 AUDIO
    TITLE "0:"
    INDEX 01 00:19:05
  TRACK 32 AUDIO
    TITLE "10:cjc026_07488"
    INDEX 01 00:19:30
  TRACK 33 AUDIO
    TITLE "0:"
    INDEX 01 00:20:28
  TRACK 34 AUDIO
    TITLE "11:cjc026_07489"
    INDEX 01 00:20:53
  TRACK 35 AUDIO
    TITLE "0:"
    INDEX 01 00:21:62
  TRACK 36 AUDIO
    TITLE "12:cjc026_07490"
    INDEX 01 00:22:13
  TRACK 37 AUDIO
    TITLE "0:"
    INDEX 01 00:23:08
  TRACK 38 AUDIO
    TITLE "10:cjc026_07491"
    INDEX 01 00:23:36
  TRACK 39 AUDIO
    TITLE "0:"
    INDEX 01 00:24:25
  TRACK 40 AUDIO
    TITLE "11:cjc026_07492"
    INDEX 01 00:24:55
  TRACK 41 AUDIO
    TITLE "0:"
    INDEX 01 00:25:41
  TRACK 42 AUDIO
    TITLE "12:cjc026_07493"
    INDEX 01 00:25:66
  TRACK 43 AUDIO
    TITLE "0:"
    INDEX 01 00:26:56
  TRACK 44 AUDIO
    TITLE "10:cjc026_07494"
    INDEX 01 00:27:08
  TRACK 45 AUDIO
    TITLE "0:"
    INDEX 01 00:28:00
  TRACK 46 AUDIO
    TITLE "11:cjc026_07495"
    INDEX 01 00:28:25
  TRACK 47 AUDIO
    TITLE "0:"
    INDEX 01 00:30:38
  TRACK 48 AUDIO
    TITLE "12:cjc026_07496"
    INDEX 01 00:30:65
  TRACK 49 AUDIO
    TITLE "0:"
    INDEX 01 00:31:57
  TRACK 50 AUDIO
    TITLE "10:cjc026_07497"
    INDEX 01 00:32:07
  TRACK 51 AUDIO
    TITLE "0:"
    INDEX 01 00:32:74
  TRACK 52 AUDIO
    TITLE "11:cjc026_07498"
    INDEX 01 00:33:24
  TRACK 53 AUDIO
    TITLE "0:"
    INDEX 01 00:34:34
  TRACK 54 AUDIO
    TITLE "12:cjc026_07499"
    INDEX 01 00:34:59
  TRACK 55 AUDIO
    TITLE "0:"
    INDEX 01 00:35:51
  TRACK 56 AUDIO
    TITLE "10:cjc026_07500"
    INDEX 01 00:36:01
  TRACK 57 AUDIO
    TITLE "0:"
    INDEX 01 00:36:68
  TRACK 58 AUDIO
    TITLE "11:cjc026_07501"
    INDEX 01 00:37:18
  TRACK 59 AUDIO
    TITLE "0:"
    INDEX 01 00:38:14
  TRACK 60 AUDIO
    TITLE "12:cjc026_07502"
    INDEX 01 00:38:39
  TRACK 61 AUDIO
    TITLE "0:"
    INDEX 01 00:39:29
  TRACK 62 AUDIO
    TITLE "10:cjc026_07503"
    INDEX 01 00:39:56
  TRACK 63 AUDIO
    TITLE "0:"
    INDEX 01 00:40:50
  TRACK 64 AUDIO
    TITLE "11:cjc026_07504"
    INDEX 01 00:41:02
  TRACK 65 AUDIO
    TITLE "0:"
    INDEX 01 00:41:73
  TRACK 66 AUDIO
    TITLE "12:cjc026_07505"
    INDEX 01 00:42:23
  TRACK 67 AUDIO
    TITLE "0:"
    INDEX 01 00:43:17
  TRACK 68 AUDIO
    TITLE "10:cjc026_07506"
    INDEX 01 00:43:42
  TRACK 69 AUDIO
    TITLE "0:"
    INDEX 01 00:44:32
  TRACK 70 AUDIO
    TITLE "11:cjc026_07507"
    INDEX 01 00:44:58
  TRACK 71 AUDIO
    TITLE "0:"
    INDEX 01 00:45:73
  TRACK 72 AUDIO
    TITLE "12:cjc026_07508"
    INDEX 01 00:46:23
  TRACK 73 AUDIO
    TITLE "0:"
    INDEX 01 00:47:11
  TRACK 74 AUDIO
    TITLE "10:cjc026_07509"
    INDEX 01 00:47:38
  TRACK 75 AUDIO
    TITLE "0:"
    INDEX 01 00:48:26
  TRACK 76 AUDIO
    TITLE "11:cjc026_07510"
    INDEX 01 00:48:53
  TRACK 77 AUDIO
    TITLE "0:"
    INDEX 01 00:49:51
  TRACK 78 AUDIO
    TITLE "12:cjc026_07511"
    INDEX 01 00:50:01
  TRACK 79 AUDIO
    TITLE "0:"
    INDEX 01 00:50:64
